# File created by Blade
# Date/Time:  Thu Sep 25 14:26:36 2014
# Frame Rate: 120.000 fps
#------------------------------------------------------
:FULLY-SPECIFIED
:DEGREES
1877
root 25.049715 17.103245 -0.571602 405.684203 57.533135 375.378451
Spine 11.609089 4.063587 7.397311
Head -49.378730 -4.790110 -2.182178
LeftShoulder -3.167162 4.382962 9.342153
LeftArm 49.706882 18.814311 -67.464121
LeftForeArm 40.800330 0.000000 58.514244
LeftHand -33.420029 -0.000000 27.984982
LeftHandThumb1 -26.253704 0.000000 33.147579
RightShoulder -11.766237 15.949194 -16.400113
RightArm 173.637704 -144.956240 254.652518
RightForeArm -20.273602 0.000000 35.440505
RightHand -1.837531 -0.000000 -1.717618
RightHandThumb1 -24.326973 -0.000000 -32.862282
LeftUpLeg -23.620927 -9.504062 17.907959
LeftLeg 114.282444 -0.000000 -0.000000
LeftFoot -22.408372 25.347529 -17.738142
LeftToeBase 1.041506 -0.000000 -0.000000
RightUpLeg -45.178190 9.025524 -29.156414
RightLeg 122.621411 -0.000000 -0.000000
RightFoot 1.699976 7.099646 32.345938
RightToeBase 11.274083 -0.000000 -0.000000
1878
root 25.094177 17.174980 -0.503023 406.536077 57.193700 376.145137
Spine 11.899951 4.054570 6.339344
Head -49.387415 -5.164483 -2.182509
LeftShoulder -3.332182 4.620299 9.149416
LeftArm 48.864821 18.932018 -67.555361
LeftForeArm 41.079215 0.000000 58.764729
LeftHand -33.719432 -0.000000 28.881490
LeftHandThumb1 -26.253704 0.000000 33.147579
RightShoulder -11.908997 15.631113 -16.395018
RightArm 173.299471 -144.547082 255.317242
RightForeArm -20.244779 0.000000 35.770829
RightHand -1.815418 -0.000000 -1.690049
RightHandThumb1 -24.326973 -0.000000 -32.862282
LeftUpLeg -25.588311 -9.725652 18.844306
LeftLeg 115.023676 -0.000000 -0.000000
LeftFoot -23.145817 25.178879 -17.386368
LeftToeBase 0.560058 -0.000000 -0.000000
RightUpLeg -45.072299 8.972495 -29.528380
RightLeg 122.295723 -0.000000 -0.000000
RightFoot 2.131654 7.292274 32.706045
RightToeBase 11.820819 -0.000000 -0.000000
1879
root 25.122356 17.244353 -0.425908 407.229147 56.996904 376.773652
Spine 12.202640 4.095101 5.406929
Head -49.237351 -5.701345 -2.159825
LeftShoulder -3.408783 4.996551 8.992410
LeftArm 48.164074 18.793107 -67.532862
LeftForeArm 41.207823 -0.000000 58.814354
LeftHand -33.830839 -0.000000 30.116287
LeftHandThumb1 -26.253704 0.000000 33.147579
RightShoulder -11.911905 15.254616 -16.452590
RightArm 172.925551 -144.274973 256.075483
RightForeArm -20.146265 -0.000000 36.154666
RightHand -1.649673 -0.000000 -1.955136
RightHandThumb1 -24.326973 -0.000000 -32.862282
LeftUpLeg -27.720701 -9.658814 20.105372
LeftLeg 115.805473 -0.000000 -0.000000
LeftFoot -23.916932 24.714861 -17.197446
LeftToeBase 0.146594 -0.000000 -0.000000
RightUpLeg -44.956154 8.873467 -29.620742
RightLeg 121.999991 -0.000000 -0.000000
RightFoot 2.524756 7.561481 33.166427
RightToeBase 12.873823 -0.000000 -0.000000
1880
root 25.144798 17.314577 -0.350367 407.964152 56.771092 377.491268
Spine 12.657789 4.148165 4.282274
Head -49.350274 -6.181953 -1.918705
LeftShoulder -3.733264 5.343012 8.964778
LeftArm 47.648111 18.661655 -67.378773
LeftForeArm 40.963553 0.000000 58.666171
LeftHand -33.961021 -0.000000 31.527916
LeftHandThumb1 -26.253704 0.000000 33.147579
RightShoulder -11.993209 15.125211 -16.492828
RightArm 172.464535 -143.925255 256.930878
RightForeArm -19.984649 0.000000 36.645849
RightHand -1.766691 -0.000000 -1.975065
RightHandThumb1 -24.326973 -0.000000 -32.862282
LeftUpLeg -29.938552 -9.265581 21.350138
LeftLeg 116.472970 -0.000000 -0.000000
LeftFoot -24.796987 24.328111 -17.173254
LeftToeBase -0.269882 -0.000000 0.000000
RightUpLeg -44.846496 8.774408 -29.693895
RightLeg 121.705373 -0.000000 -0.000000
RightFoot 3.000089 7.724262 33.581628
RightToeBase 13.254634 -0.000000 -0.000000
1881
root 25.169840 17.383817 -0.275281 408.684937 56.558139 378.332527
Spine 13.284134 4.244030 3.064352
Head -49.509639 -6.789043 -1.541406
LeftShoulder -4.054838 5.763098 9.022515
LeftArm 47.326059 18.393197 -67.101947
LeftForeArm 40.683212 -0.000000 58.328532
LeftHand -34.913374 -0.000000 32.484844
LeftHandThumb1 -26.253704 0.000000 33.147579
RightShoulder -12.101320 15.103023 -16.562362
RightArm 171.978406 -143.545263 257.861499
RightForeArm -19.631262 -0.000000 37.109796
RightHand -1.612222 -0.000000 -2.087045
RightHandThumb1 -24.326973 -0.000000 -32.862282
LeftUpLeg -32.181603 -8.615135 22.494859
LeftLeg 117.037479 -0.000000 -0.000000
LeftFoot -25.738758 23.844051 -17.318747
LeftToeBase -0.499643 -0.000000 0.000000
RightUpLeg -44.649183 8.534605 -29.735796
RightLeg 121.436379 -0.000000 -0.000000
RightFoot 3.282541 7.790510 34.171639
RightToeBase 14.562598 -0.000000 -0.000000
1882
root 25.176224 17.453360 -0.202751 409.428392 56.405563 379.113053
Spine 13.857745 4.389597 1.862138
Head -49.664283 -7.413148 -1.113471
LeftShoulder -4.351813 6.005871 9.221705
LeftArm 46.853470 17.930890 -67.006271
LeftForeArm 40.227164 -0.000000 57.972407
LeftHand -35.090368 0.000000 33.939796
LeftHandThumb1 -26.253704 0.000000 33.147579
RightShoulder -12.143537 15.097073 -16.712617
RightArm 171.423903 -143.328373 258.924668
RightForeArm -19.294444 -0.000000 37.741121
RightHand -1.821352 -0.000000 -2.187795
RightHandThumb1 -24.326973 -0.000000 -32.862282
LeftUpLeg -34.638344 -7.723830 23.688367
LeftLeg 117.501259 -0.000000 -0.000000
LeftFoot -26.723337 23.223797 -17.667855
LeftToeBase -0.641009 -0.000000 0.000000
RightUpLeg -44.568247 8.109316 -29.635066
RightLeg 121.212808 -0.000000 -0.000000
RightFoot 3.593155 7.792873 33.821659
RightToeBase 14.285832 -0.000000 -0.000000
1883
root 25.197577 17.525040 -0.147103 410.378719 56.182236 380.279111
Spine 14.639212 4.553925 0.448626
Head -49.994194 -8.110490 -0.585164
LeftShoulder -4.667255 6.268425 9.549655
LeftArm 46.642540 17.307762 -67.030419
LeftForeArm 39.701373 0.000000 57.356098
LeftHand -35.396877 -0.000000 35.239052
LeftHandThumb1 -26.253704 0.000000 33.147579
RightShoulder -12.276557 15.166233 -16.876393
RightArm 170.793848 -143.215032 260.003086
RightForeArm -18.927845 -0.000000 38.564200
RightHand -1.860663 -0.000000 -2.122335
RightHandThumb1 -24.326973 -0.000000 -32.862282
LeftUpLeg -37.158810 -6.593587 24.509123
LeftLeg 117.837060 -0.000000 -0.000000
LeftFoot -27.619696 22.406813 -18.142311
LeftToeBase -0.758673 -0.000000 0.000000
RightUpLeg -44.279521 7.399327 -29.559392
RightLeg 120.979487 -0.000000 -0.000000
RightFoot 4.025191 7.281026 29.222255
RightToeBase 9.222036 -0.000000 -0.000000
